<?xml version="1.0" standalone="no"?>
<!DOCTYPE svg PUBLIC "-//W3C//DTD SVG 20010904//EN"
 "http://www.w3.org/TR/2001/REC-SVG-20010904/DTD/svg10.dtd">
<svg version="1.0" xmlns="http://www.w3.org/2000/svg"
 width="512.000000pt" height="512.000000pt" viewBox="0 0 512.000000 512.000000"
 preserveAspectRatio="xMidYMid meet">

<g transform="translate(0.000000,512.000000) scale(0.100000,-0.100000)"
fill="#e0e1dd" stroke="none">
<path d="M869 4500 c-99 -17 -183 -83 -228 -179 l-26 -56 0 -1705 0 -1705 26
-56 c33 -71 87 -125 158 -158 l56 -26 1705 0 1705 0 56 26 c71 33 125 87 158
158 l26 56 0 1705 0 1705 -26 56 c-33 71 -87 125 -158 158 l-56 26 -1675 1
c-921 1 -1696 -2 -1721 -6z m2368 -427 c58 -38 46 -138 -21 -169 -47 -23 -93
-10 -123 35 -28 42 -29 66 -3 108 30 50 93 60 147 26z m416 -8 c33 -34 40 -67
23 -109 -38 -90 -161 -80 -191 15 -9 27 13 86 38 104 35 24 100 19 130 -10z
m410 0 c64 -64 20 -175 -69 -175 -72 0 -123 84 -90 148 21 40 41 51 92 52 31
0 48 -6 67 -25z m237 -1875 c0 -978 -3 -1295 -12 -1315 -26 -58 78 -55 -1727
-55 -1266 0 -1666 3 -1686 12 -58 26 -55 -45 -55 1358 l0 1290 1740 0 1740 0
0 -1290z"/>
<path d="M1379 3055 c-14 -8 -31 -27 -37 -42 -22 -55 -212 -833 -212 -869 0
-26 8 -43 29 -65 l29 -29 276 0 276 0 0 -165 c0 -179 6 -207 51 -231 45 -23
87 -18 120 15 l29 29 0 657 0 657 -29 29 c-32 32 -71 38 -116 17 -54 -24 -55
-36 -55 -438 l0 -370 -190 0 c-104 0 -190 2 -190 5 0 3 38 158 85 345 47 187
85 356 85 376 0 73 -82 117 -151 79z"/>
<path d="M2343 3049 c-64 -25 -131 -88 -163 -154 l-25 -50 0 -490 0 -490 24
-47 c30 -61 89 -120 149 -150 44 -22 59 -23 232 -23 175 0 188 1 234 24 61 30
116 86 147 149 l24 47 0 490 0 490 -25 50 c-33 68 -99 129 -166 154 -47 18
-77 21 -217 20 -137 0 -170 -3 -214 -20z m355 -190 c63 -22 62 -12 62 -507 0
-441 0 -449 -21 -471 -32 -34 -61 -41 -179 -41 -118 0 -147 7 -179 41 -21 22
-21 29 -21 473 1 488 -1 471 56 501 35 18 234 21 282 4z"/>
<path d="M3429 3055 c-14 -8 -31 -27 -37 -42 -22 -55 -212 -833 -212 -869 0
-26 8 -43 29 -65 l29 -29 276 0 276 0 0 -165 c0 -179 6 -207 51 -231 45 -23
87 -18 120 15 l29 29 0 657 0 657 -29 29 c-49 49 -128 35 -160 -28 -7 -15 -11
-139 -11 -392 l0 -371 -190 0 c-104 0 -190 2 -190 5 0 3 38 158 85 345 47 187
85 353 85 370 0 42 -15 67 -50 85 -36 19 -67 19 -101 0z"/>
<path d="M1472 1405 c-38 -32 -46 -65 -28 -109 26 -61 47 -68 206 -64 141 3
142 3 166 31 35 41 33 99 -5 138 l-29 29 -140 0 c-135 0 -142 -1 -170 -25z"/>
<path d="M2079 1401 c-49 -49 -35 -128 28 -160 13 -6 76 -11 152 -11 124 0
131 1 159 25 51 43 51 107 1 154 -21 19 -34 21 -167 21 l-144 0 -29 -29z"/>
<path d="M2701 1409 c-50 -47 -50 -111 1 -154 28 -24 35 -25 159 -25 76 0 139
5 152 11 63 32 77 111 28 160 l-29 29 -144 0 c-133 0 -146 -2 -167 -21z"/>
<path d="M3309 1401 c-38 -39 -40 -97 -5 -138 24 -28 25 -28 166 -31 159 -4
180 3 206 64 18 44 10 77 -28 109 -28 24 -35 25 -170 25 l-140 0 -29 -29z"/>
</g>
</svg>
